<?xml version="1.0" encoding="UTF-8" standalone="no"?><!DOCTYPE svg PUBLIC "-//W3C//DTD SVG 1.1//EN" "http://www.w3.org/Graphics/SVG/1.1/DTD/svg11.dtd"><svg xmlns="http://www.w3.org/2000/svg" version="1.1" width="512" height="512"><rect width="512" height="512" fill="#F0F0F0" /><g stroke-width="12" stroke="#000000" stroke-linecap="round" fill="transparent" stroke-linejoin="round"><line x1="99" x2="131" y1="94" y2="96" /><path d="M115 95L112 182Q109 204 89 200Q 72 195 72 174"/><path d="M208 115Q203 98 185 98Q165 98 163 119Q161 134 171 141L203 160Q215 166 215 176C208 210 153 200 157 165" /><path d="M293 100C349 100 327 188 275 188C223 188 243 100 293 100" /><path d="M362 188Q365 114 375 108L427 188Q435 170 441 120" /><path stroke="#0080FF" d="M234 355Q249 351 258 342L255 394Q255 409 276 391" /></g><circle cx="263" cy="311" r="6" fill="#0080FF"/></svg>