<?xml version="1.0" encoding="UTF-8" standalone="no"?>
<!DOCTYPE svg PUBLIC "-//W3C//DTD SVG 1.1//EN" "http://www.w3.org/Graphics/SVG/1.1/DTD/svg11.dtd">
<svg xmlns="http://www.w3.org/2000/svg" version="1.1" width="512" height="512">
	<g id="all">
		<path d="M32 50l18 0l0 158l0 -54l156 0l0 54l0 -158l18 0Z" stroke="#FFFFFF" stroke-width="4" fill="transparent" />
		<path d="M56 58l108 0" stroke="#FFFFFF" stroke-width="4" />
		<path d="M56 66l108 0" stroke="#FFFFFF" stroke-width="4" />
		<path d="M56 74l108 0" stroke="#FFFFFF" stroke-width="4" />
		<path d="M56 82l108 0" stroke="#FFFFFF" stroke-width="4" />
		<path d="M56 90l108 0" stroke="#FFFFFF" stroke-width="4" />
		<path d="M56 98l108 0" stroke="#FFFFFF" stroke-width="4" />
		<rect width="32" height="44" fill="#FFFFFF" x="168" y="56" />
		<path d="M56 106l144 0" stroke="#FFFFFF" stroke-width="4" />
		<path d="M56 114l144 0" stroke="#FFFFFF" stroke-width="4" />
		<rect width="28" height="28" fill="#FFFFFF" x="56" y="120" />
		<path d="M88 122l112 0" stroke="#FFFFFF" stroke-width="4" />
		<path d="M88 130l112 0" stroke="#FFFFFF" stroke-width="4" />
		<path d="M88 138l112 0" stroke="#FFFFFF" stroke-width="4" />
		<path d="M88 146l112 0" stroke="#FFFFFF" stroke-width="4" />
	</g>
	<g id="projects" transform="translate(256,0)">
		<path d="M74 96l36 36l36 -36l-36 -36Z" fill="#FFFFFF" />
		<path d="M128 48l80 0l0 80Z" fill="#FFFFFF" />
		<path d="M68 208a40 40 0 0 1 80 0l20 0l0 -60l-120 0l0 60Z" fill="#FFFFFF" />
	</g>
	<g id="applets" transform="translate(0,256)" style="fill:#FFFFFF" mask="url(#appletsMask)">
		<mask id="appletsMask">
			<rect width="256" height="256" fill="#FFFFFF" />
			<path d="M64 64l0 44l44 -22Z" fill="#000000" />
			<path d="M148 108l8 -16l28 -28l8 8l-28 28Z" fill="#000000" />
			<path d="M66 170l0 8l20 12l20 -12l0 -16l-20 -12l-20 12l0 8Z" stroke="#000000" stroke-width="4" fill="#FFFFFF" />
			<path d="M86 166l-20 12" stroke="#000000" stroke-width="4" fill="#FFFFFF" />
			<path d="M86 166l20 12" stroke="#000000" stroke-width="4" fill="#FFFFFF" />
			<path d="M86 166l0 -16" stroke="#000000" stroke-width="4" fill="#FFFFFF" />
			<path d="M86 174l-20 -12" stroke="#000000" stroke-width="4" fill="#FFFFFF" />
			<path d="M86 174l20 -12" stroke="#000000" stroke-width="4" fill="#FFFFFF" />
			<path d="M86 174l0 16" stroke="#000000" stroke-width="4" fill="#FFFFFF" />
			<path d="M170 148l0 44" stroke="#000000" stroke-width="12" fill="#FFFFFF" />
			<path d="M148 170l44 0" stroke="#000000" stroke-width="12" fill="#FFFFFF" />
		</mask>
		<rect width="76" height="76" x="48" y="48" />
		<rect width="76" height="76" x="132" y="48" />
		<rect width="76" height="76" x="48" y="132" />
		<rect width="76" height="76" x="132" y="132" />
	</g>
	<g id="developments" transform="translate(256,256)">
		<rect width="32" height="32" fill="#FFFFFF" x="48" y="112" />
		<rect width="32" height="32" fill="#FFFFFF" x="112" y="112" />
		<rect width="32" height="32" fill="#FFFFFF" x="176" y="112" />
	</g>
</svg>