<?xml version="1.0" encoding="UTF-8" standalone="no"?>
<!DOCTYPE svg PUBLIC "-//W3C//DTD SVG 1.1//EN" "http://www.w3.org/Graphics/SVG/1.1/DTD/svg11.dtd">
<svg xmlns="http://www.w3.org/2000/svg" version="1.1" width="512" height="512">
	<g id="notification"  style="stroke:#000000">
		<path d="M116 72L116 64A12 12 0 0 1 140 64L140 72" stroke-width="8" fill="transparent" />
		<path d="M48 164a24 24 0 0 0 24 -24l0 -16a56 56 0 0 1 56 -56a56 56 0 0 1 56 56l0 16a24 24 0 0 0 24 24Z" stroke-width="8" fill="transparent" />
		<circle cx="128" cy="184" r="24" stroke-width="0" fill="#000000" />
	</g>
	<g id="projects" transform="translate(256,0)" style="fill:#000000">
		<path d="M74 96l36 36l36 -36l-36 -36Z" />
		<path d="M128 48l80 0l0 80Z" />
		<path d="M68 208a40 40 0 0 1 80 0l20 0l0 -60l-120 0l0 60Z" />
	</g>
	<g id="applets" transform="translate(0,256)" style="fill:#000000" mask="url(#appletsMask)">
		<mask id="appletsMask">
			<rect width="256" height="256" fill="#FFFFFF" />
			<path d="M64 64l0 44l44 -22Z" fill="#000000" />
			<path d="M148 108l8 -16l28 -28l8 8l-28 28Z" fill="#000000" />
			<path d="M66 170l0 8l20 12l20 -12l0 -16l-20 -12l-20 12l0 8Z" stroke="#000000" stroke-width="4" fill="#FFFFFF" />
			<path d="M86 166l-20 12" stroke="#000000" stroke-width="4" fill="#FFFFFF" />
			<path d="M86 166l20 12" stroke="#000000" stroke-width="4" fill="#FFFFFF" />
			<path d="M86 166l0 -16" stroke="#000000" stroke-width="4" fill="#FFFFFF" />
			<path d="M86 174l-20 -12" stroke="#000000" stroke-width="4" fill="#FFFFFF" />
			<path d="M86 174l20 -12" stroke="#000000" stroke-width="4" fill="#FFFFFF" />
			<path d="M86 174l0 16" stroke="#000000" stroke-width="4" fill="#FFFFFF" />
			<path d="M170 148l0 44" stroke="#000000" stroke-width="12" fill="#FFFFFF" />
			<path d="M148 170l44 0" stroke="#000000" stroke-width="12" fill="#FFFFFF" />
		</mask>
		<rect width="76" height="76" x="48" y="48" />
		<rect width="76" height="76" x="132" y="48" />
		<rect width="76" height="76" x="48" y="132" />
		<rect width="76" height="76" x="132" y="132" />
	</g>
	<g id="setting" transform="translate(256,256)" style="fill:#000000">
		<rect width="40" height="24" x="108" y="48" />
		<rect width="40" height="24" x="108" y="48" transform="rotate(60,128,128)" />
		<rect width="40" height="24" x="108" y="48" transform="rotate(120,128,128)" />
		<rect width="40" height="24" x="108" y="184" />
		<rect width="40" height="24" x="108" y="48" transform="rotate(240,128,128)" />
		<rect width="40" height="24" x="108" y="48" transform="rotate(300,128,128)" />
		<circle cx="128" cy="128" r="56" stroke-width="16" stroke="#000000" fill="transparent" />
		<circle cx="128" cy="128" r="36" stroke-width="0" />
	</g>
</svg>